<?xml version="1.0" encoding="utf-8"?>
<!-- Generator: Adobe Illustrator 18.1.1, SVG Export Plug-In . SVG Version: 6.00 Build 0)  -->
<svg version="1.1" id="Layer_1" xmlns="http://www.w3.org/2000/svg" xmlns:xlink="http://www.w3.org/1999/xlink" x="0px" y="0px"
	 viewBox="0 0 140 46" enable-background="new 0 0 140 46" xml:space="preserve">
<g>
	<path fill="#8E8E8D" d="M121.7,16.7c0,0.3-0.2,0.5-0.5,0.5c-0.3,0-0.5-0.2-0.5-0.5s0.2-0.5,0.5-0.5
		C121.4,16.2,121.7,16.4,121.7,16.7z M121.9,17.2l4.3,11.9h-0.8l-4.3-11.9H121.9z"/>
	<path fill="#DDDDD8" d="M121.2,17.2h9.7l2.6,7.1h-9.7L121.2,17.2z"/>
	<path fill="#8E8E8D" d="M131,26.6l-0.8-2.4h3.2L131,26.6z"/>
	<path fill="#C6C6C6" d="M131,26.6l2.4-2.4l-1.8-4.7h1.6l2.6,7.1C135.8,26.6,131,26.6,131,26.6z"/>
	<path fill="#81DBEB" d="M131.3,18.7l-7.6,5.7l-2.6-7.1h9.7L131.3,18.7z"/>
	<path fill="#75C8D1" d="M133.2,19.6l-1.3,0.9l-0.4-0.9H133.2z"/>
	<path fill="#ED1C24" d="M133.3,24.3h-9.7l7.6-5.7L133.3,24.3z"/>
	<path fill="#D11E2B" d="M133.3,24.3l-1.4-3.8l1.3-0.9l2.6,7.1H131L133.3,24.3z"/>
</g>
<g>
	<path fill="#ED1C24" d="M13.9,28.9l-3.3-5.7l-2.1,2.5v3.3H6.4V16.8h2.2v5.6l4.8-5.6h2.7l-3.9,4.5l4.3,7.6H13.9z"/>
	<path fill="#ED1C24" d="M27,28.9l-5.2-8.3v8.3h-2.2V16.8h2.3l5.2,8.2v-8.2h2.2v12.1H27z"/>
	<path fill="#ED1C24" d="M41,28.9l-0.8-2.3h-4.8l-0.8,2.3h-2.2l4.3-12.1h2.4l4.3,12.1H41z M37.9,19.6l-1.8,5.1h3.4L37.9,19.6z"/>
	<path fill="#ED1C24" d="M51.2,24.6h-2.6v4.3h-2.2V16.8h4.8c2.8,0,4.3,1.5,4.3,3.9C55.5,23.1,54,24.6,51.2,24.6z M51.1,18.8h-2.5
		v3.9h2.5c1.5,0,2.1-0.8,2.1-2S52.6,18.8,51.1,18.8z"/>
	<path fill="#ED1C24" d="M63.6,24.6H61v4.3h-2.2V16.8h4.8c2.8,0,4.3,1.5,4.3,3.9C67.8,23.1,66.4,24.6,63.6,24.6z M63.5,18.8H61v3.9
		h2.5c1.5,0,2.1-0.8,2.1-2S65,18.8,63.5,18.8z"/>
	<path fill="#ED1C24" d="M79,27.9c-0.9,0.9-2.3,1.3-3.8,1.3c-1.3,0-2.7-0.4-3.6-1.3c-0.7-0.6-1.3-1.7-1.3-2.8h2.2
		c0,0.6,0.3,1.1,0.6,1.5c0.5,0.5,1.3,0.6,2,0.6c0.8,0,1.6-0.1,2.1-0.6c0.3-0.3,0.5-0.6,0.5-1.2c0-0.9-0.7-1.3-1.4-1.4
		c-0.8-0.1-1.9-0.2-2.7-0.4c-1.7-0.3-3.1-1.4-3.1-3.4c0-1,0.4-1.8,1-2.4c0.8-0.8,2.1-1.3,3.6-1.3c1.3,0,2.6,0.4,3.4,1.2
		c0.7,0.7,1.2,1.5,1.3,2.6h-2.2c0-0.4-0.2-0.9-0.6-1.2c-0.4-0.4-1.2-0.6-1.8-0.6c-0.7,0-1.5,0.1-2,0.7c-0.3,0.3-0.4,0.6-0.4,1
		c0,0.8,0.5,1.2,1.3,1.3c0.8,0.1,1.8,0.2,2.7,0.3c1.8,0.3,3.4,1.4,3.4,3.5C80,26.5,79.6,27.3,79,27.9z"/>
	<path fill="#ED1C24" d="M91.1,28.9l-0.8-2.3h-4.8l-0.8,2.3h-2.2l4.3-12.1h2.4l4.3,12.1H91.1z M87.9,19.6l-1.8,5.1h3.4L87.9,19.6z"
		/>
	<path fill="#ED1C24" d="M103.6,27.8c-0.9,0.9-2.2,1.4-3.4,1.4c-1.3,0-2.5-0.4-3.4-1.3c-1.3-1.3-1.5-2.9-1.5-4.9s0.2-3.6,1.5-4.9
		c0.9-0.9,2.1-1.4,3.4-1.4c1.3,0,2.6,0.5,3.4,1.4c0.7,0.7,1.1,1.7,1.2,2.7h-2.2c-0.1-0.6-0.2-0.9-0.6-1.3c-0.4-0.5-1.1-0.8-1.8-0.8
		c-0.7,0-1.4,0.3-1.9,0.8c-0.8,0.8-0.8,2.4-0.8,3.5c0,1.1,0,2.6,0.8,3.5c0.5,0.5,1.2,0.8,1.9,0.8c0.8,0,1.4-0.3,1.8-0.8
		c0.3-0.4,0.5-0.8,0.6-1.3h2.2C104.7,26,104.3,27,103.6,27.8z"/>
	<path fill="#ED1C24" d="M116,28.9l-3.3-5.7l-2.1,2.5v3.3h-2.2V16.8h2.2v5.6l4.8-5.6h2.7l-3.9,4.5l4.3,7.6H116z"/>
</g>
</svg>
