<?xml version="1.0" encoding="utf-8"?>
<!-- Generator: Adobe Illustrator 18.1.1, SVG Export Plug-In . SVG Version: 6.00 Build 0)  -->
<svg version="1.1" id="Layer_1" xmlns="http://www.w3.org/2000/svg" xmlns:xlink="http://www.w3.org/1999/xlink" x="0px" y="0px"
	 viewBox="75 0 50 50" enable-background="new 75 0 50 50" xml:space="preserve">
<g>
	<path fill="#DDDDD8" d="M80.4,7.7c0,0.8-0.6,1.4-1.4,1.4c-0.8,0-1.4-0.6-1.4-1.4c0-0.8,0.6-1.4,1.4-1.4S80.4,6.9,80.4,7.7z M81,9.2
		l12.5,34.4l-2.2,0L78.8,9.2L81,9.2z"/>
	<path fill="#DDDDD8" d="M79,9.2l27.9,0l7.5,20.4l-27.9,0L79,9.2z"/>
	<path fill="#8E8E8D" d="M107.3,36.5l-2.4-6.9l9.3,0L107.3,36.5z"/>
	<path fill="#C6C6C6" d="M107.3,36.5l6.9-6.9L109.1,16l4.7,0l7.5,20.4C121.3,36.5,107.3,36.5,107.3,36.5z"/>
	<path fill="#81DBEB" d="M108.3,13.4L86.5,29.8L79,9.4l27.9,0L108.3,13.4z"/>
	<path fill="#75C8D1" d="M113.8,16l-3.6,2.6l-1-2.6L113.8,16z"/>
	<path fill="#ED1C24" d="M114.2,29.6l-27.9,0l21.9-16.4L114.2,29.6z"/>
	<path fill="#D11E2B" d="M114.2,29.6l-4-10.9l3.6-2.6l7.5,20.4l-14,0L114.2,29.6z"/>
</g>
</svg>
