<?xml version="1.0" encoding="utf-8"?>
<!-- Generator: Adobe Illustrator 18.1.1, SVG Export Plug-In . SVG Version: 6.00 Build 0)  -->
<svg version="1.1" id="Layer_1" xmlns="http://www.w3.org/2000/svg" xmlns:xlink="http://www.w3.org/1999/xlink" x="0px" y="0px"
	 viewBox="0 0 200 50" enable-background="new 0 0 200 50" xml:space="preserve">
<g>
	<path fill="#DDDDD8" d="M173.8,16c0,0.4-0.3,0.7-0.7,0.7s-0.7-0.3-0.7-0.7c0-0.4,0.3-0.7,0.7-0.7S173.8,15.6,173.8,16z M174.1,16.7
		l6.2,17h-1.1l-6.2-17H174.1z"/>
	<path fill="#DDDDD8" d="M173.1,16.7h13.8l3.7,10.1h-13.8L173.1,16.7z"/>
	<path fill="#8E8E8D" d="M187.1,30.2l-1.2-3.4h4.6L187.1,30.2z"/>
	<path fill="#C6C6C6" d="M187.1,30.2l3.4-3.4l-2.5-6.7h2.3l3.7,10.1C194,30.2,187.1,30.2,187.1,30.2z"/>
	<path fill="#81DBEB" d="M187.6,18.8l-10.8,8.1l-3.7-10.1h13.8L187.6,18.8z"/>
	<path fill="#75C8D1" d="M190.3,20.1l-1.8,1.3l-0.5-1.3H190.3z"/>
	<path fill="#ED1C24" d="M190.5,26.8h-13.8l10.8-8.1L190.5,26.8z"/>
	<path fill="#D11E2B" d="M190.5,26.8l-2-5.4l1.8-1.3l3.7,10.1h-6.9L190.5,26.8z"/>
</g>
<g>
	<path fill="#ED1C24" d="M19.9,33.5l-4.7-8.2l-3,3.5v4.7H9.1V16.2h3.1v8l6.9-8H23l-5.6,6.5l6.2,10.8H19.9z"/>
	<path fill="#ED1C24" d="M38.6,33.5l-7.5-11.9v11.9H28V16.2h3.3l7.4,11.7V16.2h3.1v17.3H38.6z"/>
	<path fill="#ED1C24" d="M58.6,33.5l-1.1-3.3h-6.9l-1.1,3.3h-3.2l6.1-17.3h3.4l6.1,17.3H58.6z M54.1,20.1l-2.5,7.3h4.9L54.1,20.1z"
		/>
	<path fill="#ED1C24" d="M73.2,27.3h-3.7v6.2h-3.1V16.2h6.8c4,0,6.1,2.2,6.1,5.5C79.3,25.1,77.1,27.3,73.2,27.3z M73,19h-3.5v5.6H73
		c2.1,0,3-1.1,3-2.8S75.1,19,73,19z"/>
	<path fill="#ED1C24" d="M90.8,27.3h-3.7v6.2H84V16.2h6.8c4,0,6.1,2.2,6.1,5.5C96.9,25.1,94.8,27.3,90.8,27.3z M90.7,19h-3.5v5.6
		h3.5c2.1,0,3-1.1,3-2.8S92.8,19,90.7,19z"/>
	<path fill="#ED1C24" d="M112.9,32c-1.3,1.3-3.3,1.9-5.5,1.9c-1.8,0-3.8-0.5-5.2-1.8c-1-0.9-1.8-2.4-1.8-4h3.2
		c0,0.9,0.4,1.6,0.9,2.1c0.7,0.7,1.9,0.9,2.9,0.9c1.2,0,2.3-0.2,3-0.9c0.4-0.4,0.7-0.8,0.7-1.7c0-1.3-1-1.9-2-2
		c-1.2-0.2-2.7-0.3-3.8-0.5c-2.4-0.4-4.4-2-4.4-4.8c0-1.4,0.6-2.5,1.5-3.4c1.1-1.1,3-1.8,5.1-1.8c1.9,0,3.7,0.6,4.8,1.7
		c1,1,1.7,2.2,1.8,3.7h-3.2c0-0.6-0.3-1.3-0.8-1.7c-0.6-0.6-1.7-0.9-2.6-0.9c-1,0-2.1,0.2-2.8,1c-0.4,0.4-0.6,0.8-0.6,1.5
		c0,1.1,0.7,1.7,1.8,1.9c1.1,0.2,2.6,0.3,3.8,0.4c2.6,0.4,4.8,2,4.8,5C114.3,30,113.7,31.1,112.9,32z"/>
	<path fill="#ED1C24" d="M130.2,33.5l-1.1-3.3h-6.9l-1.1,3.3h-3.2l6.1-17.3h3.4l6.1,17.3H130.2z M125.6,20.1l-2.5,7.3h4.9
		L125.6,20.1z"/>
	<path fill="#ED1C24" d="M148,31.8c-1.3,1.3-3.1,2-4.9,2c-1.9,0-3.6-0.6-4.9-1.9c-1.9-1.9-2.1-4.2-2.1-7s0.3-5.1,2.1-7
		c1.3-1.3,3-2,4.9-2s3.7,0.7,4.9,2c1,1,1.5,2.4,1.7,3.8h-3.2c-0.1-0.8-0.3-1.3-0.8-1.8c-0.6-0.7-1.5-1.1-2.6-1.1c-1,0-2,0.4-2.7,1.1
		c-1.2,1.2-1.2,3.4-1.2,5s0,3.7,1.2,5c0.7,0.7,1.7,1.1,2.7,1.1c1.1,0,2-0.4,2.6-1.1c0.4-0.5,0.7-1.1,0.8-1.9h3.2
		C149.6,29.3,149,30.7,148,31.8z"/>
	<path fill="#ED1C24" d="M165.7,33.5l-4.7-8.2l-3,3.5v4.7h-3.1V16.2h3.1v8l6.9-8h3.8l-5.6,6.5l6.2,10.8H165.7z"/>
</g>
</svg>
